<?xml version="1.0" encoding="UTF-8" standalone="no"?><!DOCTYPE svg PUBLIC "-//W3C//DTD SVG 1.1//EN" "http://www.w3.org/Graphics/SVG/1.1/DTD/svg11.dtd"><svg width="100%" height="100%" viewBox="0 0 5702 3890" version="1.1" xmlns="http://www.w3.org/2000/svg" xmlns:xlink="http://www.w3.org/1999/xlink" xml:space="preserve" xmlns:serif="http://www.serif.com/" style="fill-rule:evenodd;clip-rule:evenodd;stroke-linecap:round;stroke-linejoin:round;stroke-miterlimit:1.5;"><g><g><g><g><g><path d="M2798.42,124.352c21.937,-26.541 54.575,-41.907 89.008,-41.907c34.434,-0 67.071,15.366 89.009,41.907c257.179,311.145 983.08,1189.37 983.08,1189.37l-2144.18,0c0,0 725.901,-878.22 983.081,-1189.37Z" style="fill:none;stroke:#201e20;stroke-width:33.33px;"/><g><g><ellipse cx="2894.62" cy="143.465" rx="61.822" ry="65.454" style="fill:#ddc3a5;"/></g><ellipse cx="2879.75" cy="148.313" rx="61.822" ry="65.454" style="fill:#201e20;"/></g><g><path d="M2919.51,175.762l-78.842,-61.384l-6.323,8.122l78.842,61.384l6.323,-8.122Z" style="fill:#ddc3a5;"/><path d="M2850.75,191.141l61.384,-78.841l-8.122,-6.324l-61.384,78.842l8.122,6.323Z" style="fill:#ddc3a5;"/></g></g><path d="M5701.22,1356.26c0,-154.996 -125.837,-280.834 -280.834,-280.834l-5139.56,0c-154.996,0 -280.834,125.838 -280.834,280.834l0,1865.47c0,154.997 125.838,280.834 280.834,280.834l5139.56,0c154.997,0 280.834,-125.837 280.834,-280.834l0,-1865.47Z" style="fill:#e0a96d;"/><g><g><g><path d="M3993.38,1852.38c0,-0 332.372,-198.107 594.037,-178.305c193.305,14.629 373.749,169.873 410.933,358.875c39.043,198.45 -118.771,631.181 -356.143,709.331c-35.283,11.617 -49.348,-97.003 -49.348,-97.003c0,0 335.021,-333.585 191.802,-653.777c-54.344,-121.495 -203.516,-156.766 -313.247,-149.489c-211.66,14.037 -373.075,140.909 -373.075,140.909l-104.959,-130.541Z" style="fill:#ddc3a5;"/><path d="M4167.95,2219.97l139.002,-92.574c-0,0 98.706,175.904 94.29,263.214c-4.004,79.181 -16.541,125.004 -83.563,220.353c-90.213,128.343 -197.449,130.784 -197.449,130.784c-0,-0 -65.726,-74.545 -40.461,-100.233c200.744,-204.095 88.181,-421.544 88.181,-421.544Z" style="fill:#ddc3a5;"/><path d="M2484.8,1686.45c0,-0 170.112,-102.462 182.98,-47.721c84.69,360.283 -219.597,709.9 -219.597,709.9c-0,-0 -98.426,0.442 -85.986,-34.559c179.468,-504.978 122.603,-627.62 122.603,-627.62Z" style="fill:#ddc3a5;"/><path d="M1214.96,2107.68c-0,-0 148.306,-171.702 316.422,-274.941c145.905,-89.599 464.16,-198.294 646.602,-86.968c179.846,109.743 163.706,268.964 68.717,552.575c-53.392,159.414 -275.445,490.594 -275.445,490.594c-0,-0 -92.214,-70.661 -78.884,-110.291c51.166,-152.11 334.051,-561.665 166.169,-752.989c-82.64,-94.18 -333.189,-127.197 -717.659,281.258c-36.629,38.915 -125.922,-99.238 -125.922,-99.238Z" style="fill:#ddc3a5;"/><path d="M1335.22,1807.05c0,0 154.358,-120.422 165.577,-62.505c61.693,318.471 232.527,997.636 -424.604,1340.22c-196.824,102.611 -575.653,45.495 -659.194,-117.922c-130.323,-254.928 211.267,-434.688 211.267,-434.688c0,0 15.741,104.726 -13.754,130.748c-301.43,265.936 162.673,303.787 321.69,259.962c264.192,-72.814 411.818,-346.366 433.757,-538.016c24.38,-212.962 -34.739,-577.802 -34.739,-577.802Z" style="fill:#ddc3a5;"/><path d="M5400.08,2682.87c0,-0 -1289.29,-88.403 -4199.73,394.741c-55.265,9.174 51.405,190.565 51.405,190.565c0,-0 973.991,-293.788 4077.54,-496.71c55.105,-3.603 70.781,-88.596 70.781,-88.596Z" style="fill:#ddc3a5;"/></g><path d="M2736.92,1648.66c0,0 343.61,-446.09 867.862,-308.992c271.467,70.992 368.323,373.285 337.516,574.41c-35.62,232.54 -226.715,766.034 -551.235,820.828c-298.974,50.482 -348.517,-287.579 -360.104,-324.779c-51.1,-164.048 58.654,147.781 -705.322,609.347c-36.64,22.136 -84.294,-139.362 -84.294,-139.362c-0,0 246.359,-100.053 534.083,-448.418c120.496,-145.892 197.617,-306.152 235.846,-412.617c16.012,-44.59 146.326,-78.428 153.825,1.877c14.082,150.821 -20.065,500.152 147.499,531.327c218.119,40.582 340.904,-335.971 397.971,-501.307c52.923,-153.33 91.02,-386.209 -55.572,-490.71c-367.655,-262.091 -805.152,186.883 -805.152,186.883l-112.923,-98.487Z" style="fill:#ddc3a5;"/></g><g><g><path d="M3917.6,1890.1c-0,0 332.371,-198.107 594.036,-178.304c193.305,14.629 373.749,169.872 410.933,358.874c39.043,198.45 -118.771,631.181 -356.143,709.332c-35.283,11.616 -49.348,-97.003 -49.348,-97.003c0,-0 335.021,-333.586 191.802,-653.778c-54.344,-121.495 -203.516,-156.765 -313.247,-149.488c-211.66,14.036 -373.075,140.909 -373.075,140.909l-104.958,-130.542Z" style="fill:#201e20;"/><path d="M4092.17,2257.7l139.002,-92.573c-0,-0 98.706,175.904 94.29,263.213c-4.004,79.181 -16.541,125.005 -83.563,220.354c-90.213,128.343 -197.449,130.783 -197.449,130.783c-0,0 -65.726,-74.545 -40.461,-100.232c200.745,-204.095 88.181,-421.545 88.181,-421.545Z" style="fill:#201e20;"/><path d="M2409.01,1724.17c0,0 170.112,-102.462 182.98,-47.72c84.69,360.283 -219.597,709.899 -219.597,709.899c-0,0 -98.425,0.443 -85.986,-34.559c179.468,-504.978 122.603,-627.62 122.603,-627.62Z" style="fill:#201e20;"/><path d="M1139.18,2145.4c-0,0 148.306,-171.702 316.422,-274.94c145.905,-89.6 464.16,-198.295 646.602,-86.969c179.847,109.743 163.706,268.965 68.717,552.575c-53.392,159.415 -275.445,490.594 -275.445,490.594c-0,0 -92.214,-70.66 -78.884,-110.29c51.166,-152.11 334.051,-561.665 166.169,-752.99c-82.64,-94.179 -333.189,-127.196 -717.658,281.258c-36.63,38.915 -125.923,-99.238 -125.923,-99.238Z" style="fill:#201e20;"/><path d="M1259.44,1844.77c0,-0 154.358,-120.422 165.577,-62.505c61.693,318.471 232.527,997.635 -424.604,1340.22c-196.824,102.612 -575.652,45.495 -659.194,-117.922c-130.323,-254.927 211.268,-434.687 211.268,-434.687c-0,-0 15.74,104.726 -13.755,130.748c-301.43,265.935 162.673,303.787 321.69,259.961c264.192,-72.813 411.818,-346.366 433.757,-538.016c24.38,-212.961 -34.739,-577.801 -34.739,-577.801Z" style="fill:#201e20;"/><path d="M5324.29,2720.59c0,0 -1289.29,-88.403 -4199.73,394.741c-55.265,9.175 51.405,190.565 51.405,190.565c0,0 973.991,-293.787 4077.54,-496.709c55.104,-3.603 70.78,-88.597 70.78,-88.597Z" style="fill:#201e20;"/></g><path d="M2661.14,1686.38c-0,-0 343.609,-446.09 867.861,-308.993c271.467,70.992 368.324,373.286 337.516,574.411c-35.62,232.54 -226.715,766.033 -551.235,820.828c-298.974,50.481 -348.517,-287.579 -360.104,-324.779c-51.1,-164.048 58.654,147.781 -705.322,609.346c-36.64,22.136 -84.294,-139.361 -84.294,-139.361c-0,-0 246.359,-100.053 534.083,-448.419c120.496,-145.892 197.617,-306.152 235.846,-412.616c16.012,-44.59 146.326,-78.429 153.825,1.877c14.082,150.82 -20.065,500.152 147.5,531.327c218.118,40.581 340.904,-335.971 397.97,-501.307c52.923,-153.331 91.02,-386.21 -55.572,-490.711c-367.655,-262.091 -805.152,186.883 -805.152,186.883l-112.922,-98.486Z" style="fill:#201e20;"/></g></g></g><g><g><path d="M1145.01,3840.97l43.241,0l-0,-108.101c-0,-73.784 -26.425,-89.913 -76.186,-89.913l-100.208,0l0,36.72l89.913,0c28.827,0 43.24,12.011 43.24,57.654l0,103.64Zm-128.348,0l43.24,0l0,-72.411c0,-13.727 1.03,-22.993 3.775,-32.602l-39.809,-7.893c-5.147,11.325 -7.206,26.425 -7.206,40.495l-0,72.411Z" style="fill:#201e20;fill-rule:nonzero;"/><path d="M1275.77,3640.89c-14.071,-0 -28.141,1.716 -42.211,6.177l5.834,34.661c9.265,-3.088 16.815,-4.118 23.679,-4.118c14.07,0 17.502,9.266 17.502,26.768l0,99.865l-46.672,0l-0,36.72l89.913,0l-0,-143.792c-0,-37.406 -14.414,-56.281 -48.045,-56.281Z" style="fill:#201e20;fill-rule:nonzero;"/><path d="M1416.12,3642.95l-43.241,0c3.089,10.982 4.461,27.111 4.461,40.152l0,68.636l43.241,-0l-0,-68.636c-0,-11.668 -1.03,-28.141 -4.461,-40.152Z" style="fill:#201e20;fill-rule:nonzero;"/><path d="M1512.56,3642.95l-43.241,0c3.089,10.982 4.462,27.111 4.462,40.152l-0,157.862l43.24,0l0,-157.862c0,-11.668 -1.029,-28.141 -4.461,-40.152Z" style="fill:#201e20;fill-rule:nonzero;"/><path d="M1720.87,3804.25l0,-89.913c0,-51.477 -26.081,-73.783 -72.41,-73.783c-27.798,-0 -54.566,5.147 -82.02,12.354l7.893,35.691c25.739,-7.207 44.27,-11.325 67.606,-11.325c22.993,-0 36.034,13.727 36.034,42.897l0,84.079l-108.101,0l-0,36.72l177.08,0l0,-36.72l-26.082,0Z" style="fill:#201e20;fill-rule:nonzero;"/><path d="M2079.49,3732.52c0,-65.547 -21.963,-89.57 -81.333,-89.57l-105.356,0l0,36.72l22.307,0l-0,98.836c-0,18.874 -2.403,27.454 -17.502,27.454c-5.834,-0 -13.041,-1.03 -19.562,-3.775l-5.147,35.347c8.579,3.432 21.963,5.491 33.631,5.491c35.691,0 50.791,-14.756 50.791,-48.731l-0,-114.622l34.318,0c33.974,0 44.613,14.757 44.613,54.222l-0,107.072l43.24,0l0,-108.444Z" style="fill:#201e20;fill-rule:nonzero;"/><path d="M2172.49,3642.95l-43.241,0c3.089,10.982 4.462,27.111 4.462,40.152l-0,68.636l43.24,-0l0,-68.636c0,-11.668 -1.029,-28.141 -4.461,-40.152Z" style="fill:#201e20;fill-rule:nonzero;"/><path d="M2257.26,3642.95l-0,-34.318l-40.495,0l-0,71.038l107.072,0l-0,83.736c-0,28.14 -11.325,42.554 -36.72,42.554c-12.355,-0 -22.65,-2.059 -38.093,-7.207l-9.609,36.72c14.413,4.805 31.572,7.893 50.447,7.893c48.045,0 76.529,-23.336 77.215,-71.724l0,-128.692l-109.817,0Z" style="fill:#201e20;fill-rule:nonzero;"/><path d="M2600.43,3840.97l-48.045,-71.381c30.886,-2.402 47.702,-22.307 47.702,-51.82l-0,-74.813l-41.868,0l0.686,68.636c0,17.845 -6.52,29.513 -27.111,27.111l-64.174,-95.747l-48.732,0l37.063,55.595c-26.081,13.727 -38.779,32.602 -38.779,63.831l0,78.588l41.868,0l0,-74.813c0,-16.472 2.402,-27.111 17.159,-37.406l75.156,112.219l49.075,0Z" style="fill:#201e20;fill-rule:nonzero;"/><path d="M2716.77,3640.55c-31.572,-0 -55.938,5.147 -83.049,14.413l8.923,33.975c22.993,-7.55 42.211,-11.668 65.204,-11.668c26.424,-0 41.524,16.816 41.524,53.193l0,110.503l43.241,0l-0,-122.858c-0,-56.967 -27.798,-77.558 -75.843,-77.558Z" style="fill:#201e20;fill-rule:nonzero;"/><path d="M3070.59,3642.95l-41.525,0l0,104.67c0,42.554 -20.591,57.997 -68.636,57.997l-62.801,-0l-18.189,-162.667l-41.868,0l21.964,198.014l99.522,0c77.901,0 111.533,-24.365 111.533,-90.256l-0,-107.758Zm-143.449,115.651l29.857,12.012c14.756,-16.13 19.561,-40.839 19.561,-65.548l-0,-62.115l-40.152,0l-0,62.115c-0,25.396 -2.746,41.182 -9.266,53.536Z" style="fill:#201e20;fill-rule:nonzero;"/><path d="M3163.93,3642.95l-43.24,0c3.088,10.982 4.461,27.111 4.461,40.152l0,68.636l43.241,-0l-0,-68.636c-0,-11.668 -1.03,-28.141 -4.462,-40.152Z" style="fill:#201e20;fill-rule:nonzero;"/><path d="M3349.25,3840.97l43.24,0l0,-108.101c0,-73.784 -26.424,-89.913 -76.185,-89.913l-100.208,0l-0,36.72l89.912,0c28.827,0 43.241,12.011 43.241,57.654l-0,103.64Zm-128.349,0l43.241,0l-0,-72.411c-0,-13.727 1.029,-22.993 3.775,-32.602l-39.809,-7.893c-5.148,11.325 -7.207,26.425 -7.207,40.495l0,72.411Z" style="fill:#201e20;fill-rule:nonzero;"/><path d="M3680.08,3840.97l43.241,0l-0,-108.101c-0,-73.784 -26.425,-89.913 -76.186,-89.913l-100.208,0l-0,36.72l89.913,0c28.827,0 43.24,12.011 43.24,57.654l0,103.64Zm-128.349,0l43.241,0l-0,-72.411c-0,-13.727 1.03,-22.993 3.775,-32.602l-39.809,-7.893c-5.147,11.325 -7.207,26.425 -7.207,40.495l0,72.411Z" style="fill:#201e20;fill-rule:nonzero;"/><path d="M3804.65,3642.95l0,-34.318l-40.495,0l0,71.038l107.072,0l-0,83.736c-0,28.14 -11.325,42.554 -36.72,42.554c-12.355,-0 -22.65,-2.059 -38.093,-7.207l-9.609,36.72c14.413,4.805 31.572,7.893 50.447,7.893c48.045,0 76.529,-23.336 77.215,-71.724l0,-128.692l-109.817,0Z" style="fill:#201e20;fill-rule:nonzero;"/><path d="M4007.81,3642.95l-43.24,0c3.088,10.982 4.461,27.111 4.461,40.152l-0,68.636l43.24,-0l0,-68.636c0,-11.668 -1.029,-28.141 -4.461,-40.152Z" style="fill:#201e20;fill-rule:nonzero;"/><path d="M4193.13,3840.97l43.24,0l0,-108.101c0,-73.784 -26.425,-89.913 -76.186,-89.913l-100.208,0l0,36.72l89.913,0c28.827,0 43.241,12.011 43.241,57.654l-0,103.64Zm-128.349,0l43.24,0l0,-72.411c0,-13.727 1.03,-22.993 3.775,-32.602l-39.808,-7.893c-5.148,11.325 -7.207,26.425 -7.207,40.495l-0,72.411Z" style="fill:#201e20;fill-rule:nonzero;"/><path d="M4365.4,3801.16c11.325,4.119 18.189,5.491 27.798,5.491c19.218,0 27.454,-12.354 27.454,-35.69l0,-91.286l-135.555,0l-0,-36.72l178.796,0l-0,131.438c-0.687,45.985 -20.591,69.322 -63.832,69.322c-16.815,-0 -31.915,-3.089 -41.524,-6.521l6.863,-36.034Zm-68.979,-79.96l41.182,5.834c-3.432,10.638 -4.461,20.591 -4.461,34.318l-0,127.662l-43.241,0l0,-127.662c0,-14.071 2.059,-29.514 6.52,-40.152Z" style="fill:#201e20;fill-rule:nonzero;"/><path d="M4646.12,3840.97l43.24,0l0,-108.101c0,-73.784 -26.425,-89.913 -76.185,-89.913l-100.209,0l0,36.72l89.913,0c28.827,0 43.241,12.011 43.241,57.654l-0,103.64Zm-128.349,0l43.24,0l0,-72.411c0,-13.727 1.03,-22.993 3.775,-32.602l-39.808,-7.893c-5.148,11.325 -7.207,26.425 -7.207,40.495l-0,72.411Z" style="fill:#201e20;fill-rule:nonzero;"/></g></g></g><path d="M5584.68,1433.5c-0,-143.31 -116.35,-259.659 -259.66,-259.659l-4967.64,-0c-143.31,-0 -259.659,116.349 -259.659,259.659l-0,1724.82c-0,143.31 116.349,259.66 259.659,259.66l4967.64,-0c143.31,-0 259.66,-116.35 259.66,-259.66l-0,-1724.82Z" style="fill:none;stroke:#201e20;stroke-width:31.47px;stroke-miterlimit:80;"/></g><g><path d="M5024.6,1346.94c89.755,-0 162.626,72.87 162.626,162.626c-0,89.756 -72.871,162.627 -162.626,162.627c-89.756,-0 -162.627,-72.871 -162.627,-162.627c0,-89.756 72.871,-162.626 162.627,-162.626Zm-0.437,79.545c45.205,-0 81.907,36.701 81.907,81.907c-0,45.206 -36.702,81.907 -81.907,81.907c-45.206,-0 -81.907,-36.701 -81.907,-81.907c-0,-45.206 36.701,-81.907 81.907,-81.907Z" style="fill:#ddc3a5;"/><path d="M5153.69,1572.15l-65.31,65.372c0,0 172.946,172.781 212.75,212.547c4.474,4.47 11.724,4.466 16.193,-0.008c12.552,-12.564 36.572,-36.607 49.124,-49.171c4.47,-4.473 4.467,-11.723 -0.007,-16.193c-39.804,-39.766 -212.75,-212.547 -212.75,-212.547Z" style="fill:#ddc3a5;"/><path d="M5317.02,1773.16l-66.184,-64.487c-0,-0 -63.908,65.589 -86.578,88.855c-2.084,2.139 -3.233,5.019 -3.194,8.005c0.038,2.987 1.262,5.835 3.401,7.92c12.727,12.4 37.326,36.369 50.053,48.769c2.139,2.084 5.018,3.234 8.005,3.195c2.986,-0.039 5.835,-1.262 7.919,-3.402c22.67,-23.266 86.578,-88.855 86.578,-88.855Z" style="fill:#ddc3a5;"/></g></g></svg>